<svg viewBox="0 0 300 180" fill="currentColor" xmlns="http://www.w3.org/2000/svg">
  <g clip-path="url(#clip0_2619_506)">
    <path d="M165.837 69.176h2.798V66.64a.78.78 0 0 1 .794-.788h7.728a.78.78 0 0 1 .792.788v2.536h2.8v5.934h-14.912v-5.934Z" fill="#009BD7"/>
    <path d="M101.886 79.21h-7.481v29.467h7.481V79.209Z" fill="#030504"/>
    <path d="M101.748 79.347v29.193h-7.205V79.347h7.205Zm.276-.275h-7.758v29.743h7.758V79.072Z" fill="#181716"/>
    <path d="M128.539 108.677V90.749c-.552-3.63-2.65-5.536-6.069-5.536s-5.911 2.112-6.507 5.512l-.003 17.952h-7.481V79.209h5.864l1.678 4.027.141-.24c1.746-2.966 4.935-4.668 8.746-4.668 6.75 0 11.112 4.638 11.112 11.815v18.535h-7.482l.001-.001Z" fill="#030504"/>
    <path d="M124.909 78.19v.276c6.665 0 10.973 4.584 10.973 11.677v18.397h-7.205V90.728l-.003-.02c-.554-3.632-2.757-5.632-6.204-5.632-3.489 0-6.035 2.156-6.644 5.626l-.004.024v17.815h-7.205V79.347h5.634l1.536 3.686.213.512.281-.478c1.721-2.924 4.865-4.6 8.627-4.6v-.276m0 0c-3.934 0-7.148 1.817-8.866 4.737l-1.606-3.855h-6.095v29.743h7.758V90.75c.609-3.47 3.157-5.398 6.371-5.398 3.214 0 5.376 1.763 5.93 5.398v18.067h7.758V90.144c0-7.106-4.267-11.953-11.25-11.953Z" fill="#181716"/>
    <path d="M152.284 109.559c-4.963 0-9.271-2.049-11.841-5.626l5.146-4.588c1.311 2.57 4.457 4.099 6.805 4.099 2.081 0 3.848-.852 4.394-2.121l.011-.026v-1.845c-.458-1.112-1.28-1.652-3.152-2.117l-5.153-1.321c-4.171-1.08-6.41-3.128-7.046-6.447l.002-4.106c1.237-4.116 6.075-7.133 11.497-7.133 4.786 0 8.339 1.615 11.17 5.08l-4.826 4.27c-1.514-2.207-3.587-3.236-6.51-3.236-1.952 0-3.564.856-4.009 2.13l-.008 1.147c.499 1.27 1.443 1.91 3.377 2.338l4.155.936c4.545 1.01 6.754 2.775 7.879 6.296l-.006 5.192c-1.36 4.483-5.695 7.077-11.887 7.077l.002.001Z" fill="#030504"/>
    <path d="M152.948 78.19v.276c4.693 0 8.189 1.567 10.979 4.927l-4.61 4.078c-1.534-2.158-3.619-3.167-6.536-3.167-2.011 0-3.674.894-4.139 2.223l-.016.044v1.201l.02.05c.509 1.266 1.481 1.93 3.465 2.369l4.156.936c4.471.993 6.652 2.723 7.764 6.163v5.149c-1.36 4.438-5.639 6.981-11.748 6.981-4.87 0-9.103-1.989-11.655-5.468l4.921-4.388c1.381 2.522 4.503 4.017 6.844 4.017 2.137 0 3.954-.886 4.521-2.204l.022-.052v-1.93l-.021-.05c-.468-1.106-1.315-1.666-3.234-2.144l-5.152-1.322c-4.103-1.061-6.31-3.068-6.941-6.314V85.5c1.244-4.079 6.013-7.035 11.359-7.035v-.275m0 0c-5.651 0-10.417 3.194-11.636 7.27v4.131c.665 3.47 3.102 5.508 7.148 6.555l5.153 1.322c1.774.44 2.605.936 3.048 1.983v1.817c-.498 1.157-2.161 2.038-4.267 2.038-2.383 0-5.541-1.597-6.76-4.186l-5.375 4.792c2.715 3.856 7.259 5.784 12.024 5.784 6.483 0 10.695-2.81 12.025-7.216v-5.232c-1.109-3.47-3.27-5.344-7.98-6.39l-4.156-.936c-1.995-.44-2.826-1.102-3.269-2.203v-1.102c.443-1.267 2.05-2.038 3.879-2.038 2.937 0 4.988 1.047 6.483 3.306l5.044-4.462c-2.883-3.58-6.484-5.232-11.361-5.232v-.001Z" fill="#181716"/>
    <path d="M177.034 79.21h-7.481v29.467h7.481V79.209Z" fill="#030504"/>
    <path d="M176.895 79.347v29.193h-7.204V79.347h7.204Zm.277-.275h-7.758v29.744h7.758V79.072Z" fill="#181716"/>
    <path d="M195.061 109.559c-6.647 0-11.066-3.678-12.443-10.355l.003-10.548c1.42-6.65 6.036-10.328 12.994-10.328 3.693 0 6.824 1.332 8.815 3.75l.245.298V65.99h7.481v42.688h-5.869l-1.726-3.718-.138.196c-2.023 2.88-5.26 4.403-9.363 4.403h.001Zm2.272-24.566c-3.773 0-6.448 2.126-7.338 5.834l-.004 3.116v3.084c.869 3.902 3.338 5.866 7.342 5.866s6.473-1.964 7.339-5.836l.004-6.199c-.895-3.74-3.57-5.865-7.343-5.865Z" fill="#030504"/>
    <path d="M212.017 66.127v42.413h-5.641l-1.588-3.421-.202-.435-.276.393c-1.996 2.842-5.195 4.344-9.249 4.344-6.566 0-10.934-3.628-12.302-10.218V88.684c1.415-6.59 5.979-10.218 12.855-10.218 3.652 0 6.744 1.314 8.708 3.7l.491.596V66.128h7.204m-14.685 36.904c4.078 0 6.592-2 7.474-5.944l.007-.03v-6.231l-.008-.031c-.907-3.775-3.631-5.94-7.473-5.94s-6.566 2.165-7.473 5.94l-.008.03v6.233l.007.029c.882 3.944 3.397 5.944 7.474 5.944Zm14.961-37.18h-7.757v16.14c-1.996-2.424-5.153-3.801-8.922-3.801-7.314 0-11.747 3.965-13.132 10.465V99.23c1.385 6.72 5.929 10.466 12.579 10.466 4.156 0 7.425-1.542 9.476-4.461l1.662 3.58h6.095V65.852h-.001Zm-14.961 36.905c-3.767 0-6.317-1.763-7.204-5.728v-6.17c.887-3.69 3.491-5.728 7.204-5.728 3.713 0 6.318 2.038 7.204 5.728v6.17c-.886 3.965-3.436 5.728-7.204 5.728Z" fill="#181716"/>
    <path d="M232.519 109.559c-7.853 0-12.86-3.747-14.882-11.134l.005-8.998c2.003-6.925 7.409-11.087 14.458-11.099h.033c7.826 0 12.553 3.744 14.05 11.127l-.003 5.974-.75.745h-20.587l.028.161c.72 4.229 3.436 6.558 7.648 6.558 3.248 0 5.407-1.004 7.658-3.574l4.957 4.609c-2.867 3.736-7.11 5.631-12.615 5.631Zm-.276-24.896c-3.631 0-6.164 2.012-7.133 5.665l-.045.172h13.996l-.03-.162c-.67-3.554-3.207-5.675-6.788-5.675Z" fill="#030504"/>
    <path d="M232.066 78.466h.067c7.741 0 12.42 3.697 13.909 10.988v5.918l-.67.664h-20.693l.055.321c.733 4.303 3.498 6.673 7.785 6.673 3.248 0 5.42-.989 7.668-3.514l4.761 4.427c-2.838 3.635-7.018 5.477-12.429 5.477-7.771 0-12.73-3.7-14.739-10.998v-8.957c1.995-6.867 7.331-10.973 14.286-11Zm-7.181 12.172h14.342l-.061-.326c-.682-3.624-3.271-5.787-6.924-5.787-3.7 0-6.28 2.048-7.266 5.767l-.092.346m7.247-12.448c-7.093 0-12.579 4.13-14.628 11.236v9.033c2.049 7.491 7.148 11.237 15.016 11.237 5.376 0 9.809-1.818 12.8-5.784l-5.153-4.792c-2.327 2.7-4.488 3.635-7.647 3.635-4.265 0-6.825-2.402-7.513-6.444h20.48l.832-.826v-6.059c-1.497-7.38-6.318-11.236-14.186-11.236h-.001Zm-6.887 12.172c.913-3.447 3.278-5.562 6.998-5.562 3.606 0 6.015 2.184 6.651 5.562h-13.649Z" fill="#181716"/>
    <path d="M251.388 108.677V79.208h5.866l1.743 4.13.132-.282c1.209-2.588 3.054-3.847 5.641-3.847h3.298v7.105h-4.128c-2.907 0-4.612 1.466-5.069 4.357l-.001 18.006h-7.482Z" fill="#030504"/>
    <path d="M251.527 79.346h5.635l1.585 3.759.243.574.264-.565c1.184-2.535 2.988-3.767 5.516-3.767l3.159-.001v6.83h-3.99c-2.943 0-4.743 1.548-5.205 4.474l-.003.022v17.868h-7.205V79.346m-.277-.275v29.744h7.758V90.693c.444-2.81 2.106-4.241 4.932-4.241h4.267V79.07h-3.436c-2.883 0-4.67 1.579-5.767 3.927l-1.657-3.927h-6.097Z" fill="#181716"/>
    <path d="M281.837 109.559c-4.962 0-9.27-2.049-11.84-5.625l5.146-4.59c1.311 2.571 4.457 4.1 6.804 4.1 2.082 0 3.848-.852 4.394-2.121l.011-.026v-1.845c-.458-1.112-1.281-1.652-3.152-2.117l-5.153-1.321c-4.17-1.08-6.41-3.128-7.047-6.447l.003-4.106c1.238-4.116 6.076-7.133 11.498-7.133 4.786 0 8.338 1.615 11.17 5.08l-4.826 4.269c-1.513-2.206-3.586-3.235-6.509-3.235-1.953 0-3.564.856-4.01 2.13l-.007 1.147c.499 1.27 1.443 1.91 3.377 2.338l4.156.936c4.544 1.01 6.753 2.775 7.877 6.296l-.006 5.192c-1.359 4.483-5.693 7.078-11.886 7.078Z" fill="#030504"/>
    <path d="M282.501 78.466c4.694 0 8.189 1.567 10.978 4.927l-4.609 4.078c-1.534-2.158-3.618-3.167-6.534-3.167-2.012 0-3.676.894-4.141 2.223l-.015.044v1.201l.02.05c.509 1.266 1.481 1.93 3.464 2.37l4.158.935c4.47.994 6.651 2.724 7.762 6.164v5.149c-1.359 4.437-5.638 6.981-11.747 6.981-4.87 0-9.103-1.99-11.655-5.468l4.921-4.388c1.381 2.522 4.503 4.017 6.844 4.017 2.137 0 3.954-.886 4.521-2.205l.022-.051v-1.93l-.021-.051c-.467-1.105-1.314-1.666-3.233-2.143l-5.153-1.322c-4.103-1.062-6.31-3.068-6.941-6.314V85.5c1.244-4.08 6.013-7.035 11.359-7.035Zm0-.275c-5.651 0-10.416 3.194-11.636 7.27v4.13c.665 3.47 3.103 5.509 7.149 6.555l5.153 1.322c1.773.441 2.605.937 3.047 1.984v1.817c-.498 1.157-2.161 2.038-4.267 2.038-2.382 0-5.541-1.597-6.76-4.186l-5.375 4.792c2.715 3.855 7.259 5.783 12.025 5.783 6.483 0 10.694-2.809 12.024-7.215v-5.233c-1.108-3.47-3.269-5.343-7.979-6.39l-4.157-.936c-1.995-.44-2.826-1.102-3.269-2.203v-1.102c.443-1.267 2.05-2.038 3.879-2.038 2.937 0 4.988 1.047 6.483 3.306l5.042-4.462c-2.881-3.58-6.483-5.232-11.36-5.232h.001Z" fill="#181716"/>
    <path d="M98.23 75.85c-2.735 0-4.96-2.212-4.96-4.93 0-2.718 2.225-4.93 4.96-4.93s4.959 2.212 4.959 4.93c0 2.718-2.224 4.93-4.959 4.93Z" fill="#030504"/>
    <path d="M98.23 66.128c2.658 0 4.821 2.15 4.821 4.791 0 2.642-2.163 4.793-4.82 4.793a4.808 4.808 0 0 1-3.414-1.4 4.749 4.749 0 0 1-1.408-3.392c0-2.642 2.163-4.792 4.821-4.792Zm0-.275c-2.826 0-5.098 2.258-5.098 5.067s2.273 5.067 5.098 5.067c2.826 0 5.098-2.258 5.098-5.067 0-2.81-2.271-5.067-5.098-5.067Zm196.454 15.459v-2.54h-.873v-.581h2.399v.58h-.872v2.541h-.654Zm2.211 0v-3.121h.689l.829 1.352h.069l.829-1.352h.69v3.121h-.646v-1.95h-.07l-.597 1.005h-.48l-.597-1.006h-.07v1.951h-.646Z" fill="#181716"/>
    <path d="M.532 51.52v76.959h77.422V51.521H.532Z" fill="#fff"/>
    <path d="M.532 51.52v76.959h77.422V51.521H.532Zm72.272 31.99c-.128 2.399-.896 5.385-1.572 7.381-2.723 8.041-5.879 13.025-13.19 13.025-2.15 0-5.97-.568-7.376-4.374l-.333-.903-.599.755c-2.285 2.879-5.681 4.54-9.318 4.557-2.79.013-5.03-.917-6.48-2.688l-.399-.486-.423.465c-1.548 1.699-4.245 2.674-7.399 2.674-2.476 0-4.614-.837-6.021-2.354l-.384-.415-.398.401c-1.565 1.569-4.029 2.36-7.128 2.288-3.759-.089-6.047-2.174-6.12-5.58-.115-5.253 5-16.302 7.115-19.661 1.374-2.245 3.264-3.333 5.779-3.333 1.712 0 2.883.356 3.578 1.088.633.666.758 1.229.814 2.58l.073 1.747.927-1.486c2.245-3.596 5.965-4.091 9.65-4.091 2.563 0 4.8.937 5.697 2.386l.33.534.482-.405c1.898-1.605 4.578-2.49 7.545-2.49 3.237 0 5.59.801 6.994 2.379.32.36.53.61.824 1.222l.361.751.54-.635c2.055-2.416 4.861-3.64 8.342-3.64 2.757 0 4.85.727 6.22 2.164 1.719 1.801 1.964 4.335 1.868 6.143v.001Z" fill="#FFED00"/>
    <path d="M.532 51.52v76.959h77.422V51.521H.532Zm74.451 34.943c-.35 2.8-2.255 7.989-3.267 10.063-2.714 5.558-6.34 9.83-13.328 9.83-3.733 0-6.804-1.183-8.599-3.458-2.629 2.29-5.884 3.491-9.387 3.491-2.7 0-5.085-.775-6.905-2.209-2.007 1.407-4.716 2.191-7.72 2.191-2.508 0-4.765-.685-6.53-1.949-1.954 1.289-4.514 1.927-7.52 1.857-5.002-.117-8.454-3.271-8.553-7.848-.132-6.08 5.021-17.212 7.45-21.066 1.816-2.967 4.59-4.565 7.989-4.565 3.689 0 5.026 1.049 5.684 2.382 2.846-2.403 6.62-2.54 9.305-2.54 2.966 0 4.826.781 6.409 2.034 2.186-1.304 4.693-1.98 7.68-1.98 3.819 0 6.654.882 8.633 2.826 2.308-1.908 5.197-2.779 8.433-2.779 4.276 0 7.09 1.534 8.744 3.82 2.329 3.222 1.913 6.468 1.484 9.9h-.002Z" fill="#E3000B"/>
    <path d="M0 51v78h78.47V51H0Zm77.39 1.074v75.852H1.08V52.074h76.31Z" fill="#181716"/>
    <path d="M74.605 74.404v-.53h.363c.266 0 .402.092.402.262 0 .136-.088.268-.357.268h-.408Zm1.302 1.102-.226-.389c-.197-.34-.25-.394-.418-.453v-.01c.33-.039.526-.25.526-.542 0-.307-.197-.54-.614-.54h-.97v1.935h.4v-.793h.074c.172 0 .241.02.32.097.078.078.196.243.265.38l.157.316h.487-.001Zm-.959-2.475c.837 0 1.517.67 1.517 1.5a1.51 1.51 0 0 1-1.517 1.503 1.501 1.501 0 1 1 0-3.003Zm0-.369a1.868 1.868 0 1 0 0 3.736 1.873 1.873 0 0 0 1.883-1.866c0-1.034-.84-1.87-1.883-1.87Zm-10.233 2.003c-4.056 0-6.857 1.598-8.755 3.83a4.992 4.992 0 0 0-.906-1.346c-1.552-1.745-4.05-2.56-7.4-2.56-3.273 0-6 1.016-7.895 2.617-.985-1.59-3.33-2.643-6.158-2.643-3.695 0-7.721.52-10.11 4.345-.057-1.378-.182-2.106-.961-2.926-.947-.996-2.48-1.256-3.972-1.256-2.72 0-4.765 1.18-6.238 3.585-2.136 3.392-7.314 14.551-7.198 19.956.076 3.492 2.433 6.008 6.65 6.106 3.295.079 5.88-.796 7.524-2.446 1.475 1.593 3.726 2.527 6.42 2.527 2.998 0 6.017-.895 7.8-2.852 1.5 1.835 3.864 2.901 6.902 2.886 3.972-.018 7.462-1.891 9.74-4.76 1.25 3.383 4.422 4.726 7.885 4.726 7.59 0 10.924-5.187 13.701-13.391.627-1.847 1.461-4.932 1.6-7.524.23-4.31-1.605-8.874-8.629-8.874ZM14.213 95.288c3.927-.678 4.915.733 4.791 2.04-.37 3.912-3.981 4.788-7.116 4.714-2.274-.053-4.319-1.088-4.376-3.713-.099-4.59 4.611-15.211 6.829-18.732 1.023-1.671 2.271-2.498 4.262-2.498 1.885 0 2.353.963 2.325 2.115-.075 3.075-5.074 12.422-6.715 16.074Zm12.788-3.606c-.26.698-.751 2.163-1.149 3.715 1.288-.32 2.256-.543 3.912-.503 1.886.046 3.092.823 3.092 2.374 0 3.759-4.18 4.864-7.08 4.864-3.184 0-5.981-1.803-5.981-5.264 0-4.057 2.212-10.21 4.29-14.308 2.55-5.033 5.155-5.703 9.643-5.703 1.973 0 4.244.839 4.244 2.689 0 2.566-2.186 3.545-4.355 3.668-.925.052-2.35.104-3.203.044 0 0-.721 1.093-1.489 3.04 4.015-.562 5.718.344 5.04 2.652-.916 3.12-3.635 3.325-6.964 2.733ZM46.75 81.98c-1.085 0-1.796.684-2.324 1.422-1.163 1.624-3.685 8.134-4.078 10.808-.269 1.832.527 2.205 1.396 2.205 1.395 0 2.96-1.467 3.493-3.889 0 0-2.656-.064-1.923-2.404.711-2.272 2.06-2.764 4.297-2.855 4.408-.18 3.973 3.056 3.62 4.781-1.145 5.602-5.156 10.102-10.83 10.102-3.885 0-6.296-2.135-6.296-6.074 0-2.805 1.4-7.21 2.51-9.786 2.363-5.486 4.84-9.326 11.153-9.326 3.786 0 6.774 1.353 6.336 4.88-.322 2.588-1.625 4.108-3.992 4.291-.662.052-3.371-.016-2.473-2.564.314-.89.442-1.59-.889-1.59Zm23.839 4.63c-.668 3.304-2.169 7.21-3.798 10.122-2.658 4.752-5.887 5.417-8.705 5.384-2.819-.034-5.996-1.068-6.02-5.391-.018-3.104 1.33-7.484 2.472-10.355 1.992-5.205 4.029-9.449 10.467-9.373 7.507.089 6.168 6.725 5.584 9.614Zm-5.353-3.253c-.08 1.993-3.018 9.963-4.063 11.72-.452.763-.962 1.393-1.88 1.393-.802 0-1.16-.566-1.181-1.212-.058-1.798 3.261-10.815 4.397-12.278.505-.775 1.067-.9 1.711-.89.943.01 1.04.686 1.016 1.267Z" fill="#181716"/>
  </g>
  <defs>
    <clipPath id="clip0_2619_506">
      <path fill="#fff" transform="translate(0 51)" d="M0 0h300v78H0z"/>
    </clipPath>
  </defs>
</svg>
