<svg viewBox="0 0 300 180" fill="currentColor" xmlns="http://www.w3.org/2000/svg">
  <path d="M37.884 125.583H262.91l6.424-4.925 17.799-56.951L280.878 55H132.371l-1.407 4.46-3.193-4.46H39.978l-10.016 7.48-5.73 18.141 4.446 6.2h-6.32l-5.33 16.891.007.012h-.009l-.855 9.914L12 120.924h9.119l1.923-3.06-.171 6.682h4.783l4.314-1.022.064-2.552 5.175 1.588.677 3.023Z" fill="#181716" stroke="#181716" stroke-width=".6" stroke-miterlimit="10"/>
  <path d="M37.884 125.583H262.91l6.424-4.925 17.799-56.951L280.878 55H132.371l-1.407 4.46-3.193-4.46H39.978l-10.016 7.48-5.73 18.141 4.446 6.2h-6.32l-5.33 16.891.007.012h-.009l-.855 9.914L12 120.924h9.119l1.923-3.06-.171 6.682h4.783l4.314-1.022.064-2.552 5.175 1.588.677 3.023Z" stroke="#181716" stroke-width=".704" stroke-miterlimit="10"/>
  <path d="M37.884 125.583H262.91l6.424-4.925 17.799-56.951L280.878 55H132.371l-1.407 4.46-3.193-4.46H39.978l-10.016 7.48-5.73 18.141 4.446 6.2h-6.32l-5.33 16.891.007.012h-.009l-.855 9.914L12 120.924h9.119l1.923-3.06-.171 6.682h4.783l4.314-1.022.064-2.552 5.175 1.588.677 3.023Z" fill="#181716" stroke="#181716" stroke-width=".6" stroke-miterlimit="10"/>
  <path d="m193.322 90.6 1.529-5.132h23.058l3.434-10.858h-23.024l1.536-5.132h29.639l3.43-10.858h-47.726l-3.422 10.858h6.951l-9.999 31.982h40.766l3.434-10.86h-29.606Zm90.544-26.378-4.03-5.602h-43.274l-3.421 10.858h37.892l-6.569 21.123h-19.795l4.998-15.99h-11.151l-8.42 26.849h35.884l8.058-6.017 9.828-31.221ZM141.958 90.6l1.533-5.132h23.053l3.434-10.858h-23.021l1.532-5.132h29.639l3.434-10.858h-46.398l-3.43 10.858h5.626l-9.997 31.982h40.765l3.433-10.86h-29.603Zm-27.047 1.265 8.052-6.018 6.81-21.627-4.015-5.6H82.483l-3.434 10.858h37.896l-3.61 11.529h-19.82l2.05-6.397H84.438l-8.436 26.85h11.134l3.02-9.595h24.754ZM72.037 80.207 68.07 74.61H40.61l1.534-5.132h33.269l3.42-10.858H40.65l-8.07 6.02-4.817 15.229 4.019 5.599h27.482L57.711 90.6H24.455l-3.433 10.859h38.197l8.056-6.017 4.762-15.236Z" fill="#fff"/>
  <path d="m92.055 122.051 1.696-5.452h5.775l-1.696 5.452h-5.775Z" fill="#181716"/>
  <path d="m98.25 117.538-1.111 3.574h-3.805l1.11-3.574h3.806Zm2.552-1.878H93.06l-.41 1.321-1.112 3.573-.758 2.437h7.742l.41-1.321 1.112-3.573.758-2.437Zm-16.376 6.391 1.698-5.452h5.775l-1.698 5.452h-5.775Z" fill="#181716"/>
  <path d="m90.623 117.538-1.115 3.574h-3.805l1.115-3.574h3.805Zm2.553-1.878h-7.742l-.411 1.32-1.115 3.574-.76 2.437h7.742l.412-1.32 1.115-3.574.76-2.437Zm-16.38 6.391 1.699-5.452h5.773l-1.696 5.452h-5.776Z" fill="#181716"/>
  <path d="m82.992 117.538-1.111 3.574h-3.805l1.115-3.574h3.805m2.552-1.878h-7.742l-.411 1.32-1.116 3.574-.759 2.437h7.742l.41-1.321 1.112-3.573.758-2.437h.006Zm-16.383 6.391 1.7-5.452h5.778l-1.699 5.452h-5.779Z" fill="#181716"/>
  <path d="m75.37 117.538-1.116 3.574h-3.812l1.116-3.574h3.811Zm2.552-1.878h-7.75l-.41 1.32-1.116 3.574-.756 2.436h7.746l.411-1.32 1.115-3.573.76-2.438v.001Zm-16.384 6.391 1.699-5.452h5.776l-1.698 5.452h-5.777Z" fill="#181716"/>
  <path d="m67.737 117.538-1.116 3.574h-3.807l1.115-3.574h3.81m2.552-1.878h-7.742l-.411 1.32-1.116 3.574-.759 2.437h7.744l.41-1.32 1.116-3.574.758-2.436v-.001Zm-17.841 6.391 1.698-5.452h5.777l-1.698 5.452h-5.776Z" fill="#181716"/>
  <path d="m58.649 117.538-1.116 3.574h-3.806l1.115-3.574h3.81m2.551-1.878h-7.747l-.41 1.32-1.116 3.574-.758 2.436h7.742l.41-1.32 1.116-3.573.758-2.437h.005Zm-21.505 6.391-1.23-5.452H44.2l1.236 5.452h-5.738Z" fill="#181716"/>
  <path d="m43.45 117.538.81 3.574h-3.812l-.805-3.574h3.805m1.5-1.878h-7.654l.516 2.291.806 3.574.328 1.466h7.668l-.52-2.297-.81-3.573-.332-1.463-.002.002Zm-19.398 1.533 4.696-1.1-.139 5.395-4.697 1.097.14-5.392Z" fill="#181716"/>
  <path d="m29.276 117.285-.089 3.454-2.806.656.09-3.453 2.805-.656m1.94-2.383-2.37.555-2.805.656-1.412.328-.04 1.451-.09 3.452-.066 2.43 2.368-.553 2.807-.656 1.414-.328.037-1.451.089-3.454.065-2.432.002.002Zm65.759 3.589 1.697-5.455h5.782l-1.699 5.455h-5.78Z" fill="#181716"/>
  <path d="m103.177 113.977-1.115 3.576h-3.814l1.115-3.576h3.814Zm2.553-1.878h-7.749l-.41 1.32-1.116 3.575-.759 2.438h7.754l.411-1.32 1.115-3.576.759-2.437h-.005Zm-16.383 6.393 1.698-5.455h5.778l-1.698 5.455h-5.778Z" fill="#181716"/>
  <path d="m95.546 113.977-1.115 3.576h-3.808l1.115-3.576h3.81m2.552-1.878h-7.746l-.411 1.32-1.115 3.575-.757 2.436h7.742l.411-1.32 1.115-3.575.76-2.437.001.001Zm-16.382 6.393 1.698-5.455h5.778l-1.699 5.455h-5.777Z" fill="#181716"/>
  <path d="m87.918 113.977-1.116 3.576h-3.81l1.116-3.576h3.81Zm2.552-1.878h-7.742l-.411 1.32-1.116 3.575-.759 2.438h7.742l.411-1.32 1.116-3.576.759-2.437Zm-16.378 6.393 1.697-5.455h5.776l-1.7 5.455h-5.773Z" fill="#181716"/>
  <path d="m80.29 113.977-1.115 3.575h-3.806l1.116-3.575h3.805Zm2.553-1.879h-7.741l-.412 1.321-1.115 3.575-.76 2.436h7.742l.411-1.319 1.116-3.576.76-2.438v.001Zm-16.383 6.394 1.7-5.455h5.777l-1.698 5.455H66.46Z" fill="#181716"/>
  <path d="m72.661 113.977-1.115 3.576h-3.81l1.116-3.576h3.81m2.552-1.878h-7.746l-.412 1.32-1.115 3.575-.757 2.436h7.746l.41-1.32 1.116-3.575.76-2.437-.001.001Zm19.066 2.804 1.698-5.452h5.776l-1.699 5.452h-5.776Z" fill="#181716"/>
  <path d="m100.477 110.39-1.115 3.574h-3.806l1.116-3.574h3.805Zm2.553-1.878h-7.742l-.411 1.32-1.116 3.573-.759 2.438h7.742l.411-1.32 1.116-3.574.759-2.437Zm-16.383 6.391 1.702-5.452h5.78l-1.702 5.452h-5.78Z" fill="#181716"/>
  <path d="m92.852 110.39-1.115 3.574h-3.812l1.115-3.574h3.812Zm2.554-1.878h-7.748l-.411 1.318-1.115 3.574-.761 2.438h7.747l.412-1.319 1.115-3.573.761-2.438Zm-16.385 6.391 1.699-5.452h5.78l-1.702 5.452H79.02Z" fill="#181716"/>
  <path d="m85.222 110.39-1.115 3.574h-3.81l1.115-3.574h3.812m2.554-1.878h-7.75l-.412 1.32-1.115 3.573-.76 2.438h7.743l.41-1.319 1.116-3.574.761-2.438h.007Zm-16.386 6.391 1.698-5.452h5.78l-1.698 5.452h-5.78Z" fill="#181716"/>
  <path d="m77.594 110.39-1.116 3.574h-3.812l1.116-3.574h3.812Zm2.552-1.878H72.4l-.411 1.32-1.115 3.573-.76 2.438h7.75l.41-1.32 1.116-3.574.76-2.437h-.003Zm19.061 2.818 1.698-5.454h5.779l-1.698 5.454h-5.78Z" fill="#181716"/>
  <path d="m105.408 106.815-1.115 3.575h-3.812l1.115-3.575h3.812Zm2.552-1.879h-7.746l-.41 1.32-1.116 3.576-.759 2.437h7.751l.411-1.32 1.115-3.576.759-2.437h-.005Zm-16.38 6.394 1.698-5.454h5.775l-1.698 5.454H91.58Z" fill="#181716"/>
  <path d="m97.777 106.815-1.115 3.575h-3.806l1.116-3.575h3.805Zm2.552-1.879h-7.741l-.412 1.32-1.115 3.576-.76 2.437h7.742l.411-1.32 1.116-3.575.759-2.437v-.001ZM83.95 111.33l1.697-5.454h5.779l-1.698 5.454H83.95Z" fill="#181716"/>
  <path d="m90.15 106.815-1.116 3.575h-3.81l1.112-3.575h3.812m2.552-1.879h-7.745l-.411 1.321-1.111 3.576-.758 2.436h7.742l.412-1.32 1.115-3.576.759-2.437H92.7Zm-16.377 6.394 1.696-5.454h5.774l-1.696 5.454h-5.774Z" fill="#181716"/>
  <path d="m82.52 106.815-1.115 3.575H77.6l1.115-3.575h3.806Zm2.552-1.879H77.33l-.41 1.321-1.116 3.576-.757 2.436h7.741l.411-1.32 1.115-3.576.758-2.437Zm-16.38 6.394 1.698-5.454h5.778l-1.699 5.454h-5.777Z" fill="#181716"/>
  <path d="m74.891 106.815-1.115 3.575h-3.808l1.115-3.575h3.81m2.553-1.879h-7.747l-.41 1.32-1.116 3.576-.759 2.437h7.742l.41-1.32 1.116-3.576.76-2.437h.004ZM58.83 118.492l1.699-5.455h5.78l-1.699 5.455h-5.78Z" fill="#181716"/>
  <path d="m65.033 113.977-1.115 3.576h-3.812l1.116-3.576h3.812m2.552-1.878h-7.749l-.41 1.32-1.116 3.575-.757 2.436h7.748l.41-1.32 1.116-3.575.758-2.437v.001Zm-19.659 6.393.23-5.455h5.691l-.234 5.455h-5.687Z" fill="#181716"/>
  <path d="m52.866 113.977-.154 3.576h-3.805l.152-3.576h3.807Zm1.96-1.878h-7.569l-.076 1.799-.152 3.575-.083 1.959h7.568l.077-1.798.154-3.576.084-1.959h-.002Zm-23.367 6.079 1.671-5.369 5.282 1.592-1.671 5.372-5.282-1.595Z" fill="#181716"/>
  <path d="m33.75 113.977 3.484 1.05-1.115 3.577-3.484-1.049 1.115-3.576m-1.24-2.336-.553 1.778-1.115 3.575-.564 1.81 1.814.548 3.484 1.049 1.783.539.554-1.779 1.116-3.577.563-1.81-1.815-.548-3.483-1.049-1.783-.538v.002Zm-16.24 6.849 3.482-5.455h3.936l-3.484 5.455H16.27Z" fill="#181716"/>
  <path d="m21.974 113.977-2.285 3.576h-1.706l2.284-3.576h1.705m3.43-1.878h-6.167l-.55.867-2.285 3.578-1.845 2.886h6.163l.554-.867 2.284-3.576 1.846-2.886v-.002Zm38.363 2.804 1.698-5.452h5.778l-1.699 5.452h-5.777Z" fill="#181716"/>
  <path d="m69.965 110.39-1.116 3.574h-3.808l1.115-3.574h3.81m2.553-1.878h-7.747l-.412 1.32-1.115 3.573-.759 2.438h7.748l.411-1.32 1.115-3.574.76-2.437h-.001Zm-17.896 6.391 1.699-5.452h5.78l-1.7 5.452h-5.78Z" fill="#181716"/>
  <path d="m60.825 110.39-1.115 3.574h-3.812l1.116-3.574h3.812m2.554-1.878h-7.75l-.411 1.32-1.116 3.573-.759 2.438h7.75l.41-1.32 1.116-3.573.76-2.438Zm-25.023 6.391 2.896-5.452h5.933l-2.887 5.452h-5.942Z" fill="#181716"/>
  <path d="m45.625 110.39-1.892 3.574H39.92l1.897-3.574h3.805m3.12-1.878h-8.054l-.53.998-1.897 3.573-1.47 2.76h8.07l.53-1 1.892-3.574 1.46-2.755v-.002Zm-24.135 3.465 5.002-3.631 3.038 4.028-5.003 3.634-3.037-4.031Z" fill="#181716"/>
  <path d="m29.414 109.648 1.907 2.527-3.483 2.532-1.902-2.53 3.482-2.527m.389-2.604-1.493 1.083-3.482 2.528-1.547 1.123 1.15 1.527 1.903 2.529 1.11 1.475 1.494-1.085 3.482-2.529 1.548-1.124-1.152-1.527-1.907-2.528-1.111-1.472h.005Zm31.254 4.284 1.698-5.454h5.782l-1.698 5.454h-5.782Z" fill="#181716"/>
  <path d="m67.264 106.815-1.115 3.575h-3.812l1.115-3.575h3.814m2.552-1.879h-7.75l-.41 1.32-1.116 3.576-.758 2.437h7.75l.411-1.321 1.116-3.576.757-2.436Zm37.493 17.115 1.698-5.452h5.78l-1.699 5.452h-5.779Z" fill="#181716"/>
  <path d="m113.513 117.538-1.116 3.574h-3.812l1.116-3.574h3.812Zm2.552-1.878h-7.747l-.411 1.32-1.115 3.574-.759 2.437h7.747l.411-1.32 1.115-3.574.759-2.437Zm-16.383 6.391 1.698-5.452h5.778l-1.699 5.452h-5.777Z" fill="#181716"/>
  <path d="m105.882 117.538-1.116 3.574h-3.809l1.115-3.574h3.81Zm2.553-1.878h-7.746l-.411 1.32-1.116 3.574-.759 2.437h7.745l.411-1.32 1.116-3.574.759-2.437h.001Z" fill="#181716"/>
  <path d="m104.605 118.492 1.699-5.455h5.779l-1.699 5.455h-5.779Z" fill="#181716"/>
  <path d="m110.807 113.977-1.115 3.576h-3.812l1.115-3.576h3.812Zm2.552-1.878h-7.744l-.412 1.32-1.115 3.575-.759 2.438h7.747l.411-1.32 1.116-3.576.759-2.437h-.003Z" fill="#181716"/>
  <path d="m109.538 114.903 1.698-5.452h5.779l-1.698 5.452h-5.779Z" fill="#181716"/>
  <path d="m115.739 110.39-1.115 3.574h-3.812l1.115-3.574h3.812Zm2.553-1.878h-7.747l-.411 1.32-1.116 3.573-.759 2.438h7.747l.412-1.32 1.115-3.574.759-2.437Z" fill="#181716"/>
  <path d="m106.838 111.33 1.698-5.454h5.777l-1.698 5.454h-5.777Z" fill="#181716"/>
  <path d="m113.037 106.815-1.115 3.575h-3.81l1.115-3.575h3.81Zm2.552-1.879h-7.744l-.41 1.32-1.116 3.576-.759 2.437h7.742l.411-1.32 1.115-3.576.759-2.437h.002Z" fill="#181716"/>
  <path d="m101.906 114.903 1.702-5.452h5.779l-1.701 5.452h-5.78Z" fill="#181716"/>
  <path d="m108.108 110.39-1.116 3.574h-3.811l1.115-3.574h3.812Zm2.554-1.878h-7.745l-.411 1.318-1.116 3.574-.761 2.438h7.748l.411-1.319 1.115-3.573.762-2.438h-.003Zm-63.127 2.818 3.215-5.454h5.992l-3.216 5.454h-5.99Z" fill="#181716"/>
  <path d="m55.096 106.815-2.107 3.575h-3.81l2.108-3.575h3.81Zm3.289-1.879h-8.171l-.545.925-2.108 3.575-1.67 2.833h8.172l.545-.924 2.11-3.576 1.67-2.832-.003-.001Zm-24.394 1.792 6.126-1.115-1.743 5.6-6.127 1.112 1.744-5.597Z" fill="#181716"/>
  <path d="m38.76 106.815-1.115 3.575-4.041.734 1.115-3.574 4.042-.735m2.716-2.404-3.052.555-4.041.735-1.12.204-.338 1.085-1.116 3.574-.923 2.962 3.052-.554 4.04-.734 1.12-.203.339-1.087 1.115-3.575.923-2.962h.001Zm-22.462 6.919.373-5.454h4.988l-.374 5.454h-4.987Z" fill="#181716"/>
  <path d="m23.37 106.815-.244 3.575H20.02l.244-3.575h3.105Zm2.012-1.879H18.51l-.12 1.751-.243 3.575-.137 2.007h6.87l.12-1.75.244-3.576.138-2.007Zm118.283 17.426 1.712-5.477h-5.903l-1.709 5.477h-5.683l5.171-16.518h5.683l-1.711 5.48h5.902l1.713-5.48h5.683l-5.18 16.518h-5.678Z" fill="#181716"/>
  <path d="m153.246 106.784-4.593 14.639h-3.71l1.712-5.477h-7.873l-1.706 5.477h-3.716l4.583-14.639h3.715l-1.711 5.478h7.87l1.712-5.478h3.714m2.558-1.879h-7.652l-.412 1.318-1.3 4.161H142.5l.949-3.04.762-2.439h-7.648l-.413 1.318-4.583 14.639-.764 2.44h7.652l.412-1.319 1.297-4.158h3.936l-.95 3.038-.762 2.439h7.643l.413-1.316 4.592-14.639.769-2.442h-.004Zm26.389 17.457 2.083-6.635-5.223 4.892-2.261-5.178-2.171 6.921h-5.682l5.177-16.518h5.261l2.375 5.446 5.813-5.446h5.483l-5.174 16.518h-5.681Z" fill="#181716"/>
  <path d="m191.767 106.784-4.586 14.639h-3.712l2.771-8.826-6.862 6.43-2.733-6.262-2.717 8.66h-3.712l4.587-14.639h3.956l2.661 6.102 6.513-6.102h3.834m2.559-1.878h-7.136l-.542.508-4.571 4.282-1.597-3.662-.492-1.128h-6.566l-.412 1.317-4.588 14.639-.765 2.44h7.65l.413-1.316 1.211-3.87.721 1.657 1.064 2.438 1.942-1.818 1.643-1.54-.629 2.004-.766 2.441h7.65l.413-1.316 4.586-14.64.764-2.439.007.003Z" fill="#181716"/>
  <path d="m188.735 122.362 5.192-16.518h13.406l1.893 2.679-2.559 8.129-3.215 2.424h-8.006l-1.031 3.286h-5.68Zm13.229-8.848.663-2.108h-4.782l-.666 2.108h4.785Z" fill="#181716"/>
  <path d="m206.848 106.784 1.343 1.902-2.327 7.398-2.721 2.053h-8.385l-1.031 3.286h-3.71l4.602-14.639h12.229m-10.95 7.669h6.757l1.253-3.987h-6.752l-1.258 3.987Zm11.921-9.548h-14.582l-.413 1.312-4.602 14.639-.767 2.442h7.649l.413-1.316.618-1.968h7.634l.502-.38 2.721-2.053.48-.362.18-.573 2.329-7.399.28-.887-.538-.761-1.343-1.902-.562-.795.001.003Zm-9.286 7.44h2.814l-.072.229h-2.814l.073-.229h-.001Z" fill="#181716"/>
  <path d="m205.789 122.362 5.175-16.518h5.68l-5.175 16.518h-5.68Z" fill="#181716"/>
  <path d="m215.364 106.784-4.586 14.639h-3.711l4.586-14.639h3.711Zm2.559-1.879h-7.649l-.413 1.317-4.586 14.639-.764 2.44h7.651l.413-1.317 4.586-14.639.764-2.44h-.002Z" fill="#181716"/>
  <path d="m215.097 122.362-1.892-2.678 3.568-11.416 3.238-2.421h13.19l1.866 2.68-3.565 11.416-3.215 2.42-13.19-.001Zm11.701-5.561 1.693-5.395h-7.02l-1.691 5.395h7.018Z" fill="#181716"/>
  <path d="m232.711 106.784 1.323 1.902-3.338 10.689-2.723 2.048h-12.39l-1.343-1.903 3.339-10.685 2.745-2.052h12.386m-14.206 10.956h8.984l2.281-7.273h-8.988l-2.279 7.273m15.187-12.835h-13.99l-.501.374-2.744 2.053-.487.364-.181.58-3.339 10.685-.277.886.536.759 1.343 1.902.562.795h13.99l.502-.378 2.723-2.051.483-.363.18-.577 3.338-10.689.275-.878-.525-.756-1.324-1.902-.56-.805-.004.001Zm-11.528 7.44h5.048l-1.103 3.516h-5.047l1.102-3.516Z" fill="#181716"/>
  <path d="m242.512 122.362-3.03-6.923-2.174 6.923h-5.678l5.162-16.518h5.275l3.03 6.924 2.175-6.924h5.678l-5.173 16.518h-5.265Z" fill="#181716"/>
  <path d="m251.672 106.784-4.585 14.639h-3.958l-3.788-8.66-2.72 8.66h-3.714l4.576-14.639h3.97l3.789 8.66 2.719-8.66h3.711Zm2.558-1.879h-7.648l-.413 1.316-1.217 3.871-1.778-4.064-.493-1.125h-6.579l-.412 1.318-4.576 14.639-.762 2.439h7.645l.413-1.313 1.217-3.87 1.778 4.063.493 1.126h6.569l.413-1.317 4.585-14.639.764-2.44.001-.004Z" fill="#181716"/>
  <path d="m248.666 122.362 1.759-5.561h2.62l-1.832-2.596 1.879-5.94 3.214-2.421h14.468l-1.754 5.562h-2.623l1.808 2.597-1.854 5.938-3.215 2.421h-14.47Z" fill="#181716"/>
  <path d="m269.493 106.784-1.161 3.683h-11.255l-.536 1.795h9.308l1.323 1.903-1.628 5.21-2.722 2.051h-12.874l1.165-3.683h11.252l.536-1.795h-9.31l-1.343-1.904 1.649-5.21 2.722-2.051h12.874m2.562-1.878h-16.067l-.502.377-2.722 2.051-.479.362-.182.573-1.648 5.21-.28.888.537.761.518.734h-1.496l-.414 1.312-1.165 3.683-.773 2.445h16.067l.502-.378 2.721-2.051.483-.363.179-.577 1.628-5.21.274-.878-.525-.756-.517-.744h1.513l.414-1.312 1.161-3.683.77-2.443.003-.001Zm-155.948 17.457-1.89-2.678 3.568-11.418 3.234-2.422h12.637l1.864 2.68-1.233 3.976h-5.678l.339-1.094h-6.462l-1.692 5.395h12.142l-1.726 5.561h-15.103Z" fill="#181716"/>
  <path d="m133.165 106.784 1.322 1.902-.893 2.877h-3.711l.339-1.094h-8.426l-2.281 7.274h12.146l-1.144 3.683h-13.923l-1.342-1.903 3.339-10.685 2.741-2.052h11.833m.985-1.879h-13.445l-.501.375-2.741 2.053-.486.364-.181.579-3.34 10.685-.277.886.535.757 1.342 1.903.561.795h16.282l.41-1.321 1.144-3.683.756-2.436h-12.137l1.103-3.516h4.496l-.339 1.093h7.645l.41-1.321.894-2.877.272-.876-.525-.754-1.323-1.903-.56-.805.005.002Zm18.822 17.446-1.89-2.668 1.858-5.94 3.108-2.339h-2.381l1.757-5.562h15.099l1.865 2.68-4.312 13.829h-15.104Z" fill="#181716"/>
  <path d="m170.033 106.784 1.322 1.902-3.97 12.728h-13.928l-1.339-1.893 1.628-5.208 2.725-2.05h10.05l.576-1.796h-12.148l1.163-3.683h13.921Zm-13.655 10.956h8.443l.558-1.794h-8.422l-.579 1.794m14.636-12.835h-16.279l-.414 1.312-1.164 3.684-.772 2.444h.853l-.62.467-.483.364-.181.577-1.628 5.207-.278.888.538.759 1.339 1.893.562.793h16.281l.412-1.319 3.97-12.728.273-.878-.525-.754-1.322-1.903-.561-.806h-.001Z" fill="#181716"/>
  <path d="m94.442 117.538-1.111 3.574h3.808l1.111-3.574h-3.808Zm-7.627 0-1.113 3.574h3.808l1.113-3.574h-3.808Zm-8.743 3.574h3.808l1.112-3.574h-3.806l-1.114 3.574Zm-7.63 0h3.811l1.114-3.574h-3.812l-1.113 3.574Zm-6.515-3.574-1.112 3.574h3.81l1.112-3.574h-3.81Zm-10.2 3.574h3.809l1.112-3.574H54.84l-1.112 3.574Zm-14.084-3.574.805 3.574h3.812l-.81-3.574h-3.807Zm-13.263 3.856 2.807-.655.089-3.454-2.806.657-.09 3.452Zm76.797-7.417h-3.813l-1.114 3.575h3.814l1.113-3.575Zm-7.631 0h-3.81l-1.113 3.575h3.81l1.113-3.575Zm-7.628 0h-3.81l-1.114 3.575h3.81l1.114-3.575Zm-7.63 0h-3.807l-1.114 3.575h3.806l1.115-3.575Zm-7.627 0H68.85l-1.113 3.575h3.81l1.114-3.575Zm22.895-.013h3.808l1.114-3.574h-3.809l-1.113 3.574Zm-7.631 0h3.812l1.115-3.574H89.04l-1.115 3.574Zm-7.627 0h3.81l1.114-3.574h-3.811l-1.113 3.574Zm-7.63 0h3.812l1.114-3.574h-3.812l-1.114 3.574Zm32.74-7.15h-3.812l-1.113 3.576h3.812l1.113-3.576Zm-7.631 0H93.97l-1.113 3.576h3.808l1.113-3.576Zm-7.627 0h-3.812l-1.112 3.576h3.81l1.114-3.576Zm-7.632 0h-3.807l-1.113 3.576h3.807l1.113-3.576Zm-7.626 0h-3.81l-1.114 3.576h3.81l1.114-3.576Zm-9.859 7.163H61.22l-1.114 3.575h3.813l1.114-3.575Zm-16.127 3.575h3.808l.154-3.575h-3.81l-.152 3.575Zm-16.269 0 3.484 1.052 1.113-3.577-3.484-1.05-1.113 3.575Zm-14.654 0h1.707l2.284-3.575h-1.707l-2.284 3.575Zm47.058-3.588h3.81l1.114-3.574h-3.81l-1.114 3.574Zm-8.029-3.574-1.113 3.574h3.812l1.114-3.574h-3.813Zm-17.092 3.574h3.813l1.892-3.574h-3.808l-1.898 3.574Zm-13.987-1.789 1.905 2.53 3.483-2.53-1.907-2.527-3.482 2.527Zm41.331-5.361H63.45l-1.113 3.576h3.814l1.113-3.576Zm41.323 14.298h3.812l1.114-3.574h-3.812l-1.114 3.574Zm-6.515-3.574-1.114 3.574h3.81l1.114-3.574h-3.81Zm8.735-3.561h-3.812l-1.113 3.575h3.812l1.113-3.575Zm1.12-3.587-1.113 3.574h3.812l1.113-3.574h-3.812Zm1.11-3.576h-3.81l-1.113 3.576h3.809l1.114-3.576Zm-9.854 7.15h3.812l1.115-3.574h-3.811l-1.116 3.574Zm-51.896-7.15-2.108 3.576h3.81l2.11-3.576h-3.812Zm-17.682 4.31 4.041-.734 1.114-3.576-4.041.736-1.114 3.574Zm-13.584-.734h3.104l.245-3.576h-3.105l-.244 3.576Zm129.509-3.606-1.712 5.479h-7.87l1.711-5.479h-3.716l-4.583 14.639h3.714l1.709-5.477h7.871l-1.712 5.477h3.711l4.591-14.639h-3.714Zm38.403 0-6.513 6.101-2.661-6.101h-3.956l-4.588 14.639h3.713l2.716-8.66 2.734 6.262 6.862-6.427-2.771 8.825h3.712l4.586-14.639h-3.834Zm18.915 0h-12.231l-4.602 14.639h3.711l1.031-3.286h8.385l2.722-2.053 2.329-7.398-1.345-1.902Zm-4.193 7.67h-6.758l1.259-3.987h6.749l-1.25 3.987Zm8.998-7.67-4.585 14.639h3.711l4.586-14.639h-3.712Zm21.058 0h-12.387l-2.744 2.053-3.34 10.684 1.344 1.903h12.39l2.723-2.051 3.338-10.689-1.324-1.9Zm-5.222 10.956h-8.984l2.279-7.273h8.989l-2.284 7.273Zm20.472-10.956-2.719 8.658-3.789-8.658h-3.97l-4.576 14.639h3.711l2.721-8.658 3.787 8.658h3.961l4.585-14.639h-3.711Zm20.37 3.683 1.162-3.683h-12.874l-2.722 2.051-1.648 5.21 1.342 1.901h9.31l-.536 1.794h-11.252l-1.165 3.683h12.874l2.722-2.05 1.628-5.21-1.323-1.9h-9.308l.536-1.796h11.254Zm-146.535 0h8.426l-.339 1.094h3.712l.892-2.877-1.322-1.9h-11.833l-2.741 2.053-3.339 10.684 1.342 1.902h13.923l1.145-3.683h-12.147l2.281-7.273Zm48.236-3.683h-13.92l-1.163 3.683h12.148l-.575 1.796h-10.051l-2.725 2.051-1.628 5.207 1.339 1.893h13.928l3.97-12.728-1.323-1.902Zm-5.21 10.956h-8.444l.579-1.794h8.423l-.558 1.794Z" fill="#fff"/>
</svg>
