<svg viewBox="0 0 300 180" fill="currentColor" xmlns="http://www.w3.org/2000/svg">
  <g clip-path="url(#clip0_1112_1093)">
    <path d="M284 0H16C7.163 0 0 6.877 0 15.36v149.28C0 173.123 7.163 180 16 180h268c8.837 0 16-6.877 16-15.36V15.36C300 6.877 292.837 0 284 0Z" fill="#fff"/>
    <path d="M118.22 49.017 83.638 131.2H61.076L44.06 65.614c-1.033-4.04-1.932-5.52-5.074-7.221-5.13-2.772-13.602-5.373-21.055-6.987l.506-2.389h36.318c4.629 0 8.79 3.07 9.842 8.38l8.987 47.554 22.213-55.935h22.424v.002Zm88.401 55.35c.091-21.69-30.112-22.885-29.904-32.574.065-2.949 2.884-6.084 9.054-6.884 3.058-.4 11.484-.703 21.041 3.677l3.749-17.427c-5.135-1.856-11.743-3.643-19.964-3.643-21.097 0-35.944 11.17-36.069 27.165-.136 11.831 10.597 18.433 18.684 22.365 8.319 4.026 11.11 6.613 11.078 10.214-.059 5.512-6.635 7.946-12.78 8.042-10.728.164-16.953-2.891-21.915-5.189l-3.869 18.004c4.987 2.279 14.192 4.267 23.736 4.367 22.422 0 37.09-11.032 37.159-28.117Zm55.709 26.832h19.74l-17.231-82.182h-18.22c-4.097 0-7.553 2.377-9.083 6.03l-32.028 76.152h22.412l4.449-12.275h27.384l2.577 12.275Zm-23.815-29.119 11.234-30.856 6.466 30.856h-17.7Zm-89.799-53.063-17.65 82.182h-21.343l17.657-82.182h21.336Z" fill="#1434CB"/>
  </g>
  <defs>
    <clipPath id="clip0_1112_1093">
      <path fill="#fff" d="M0 0h300v180H0z"/>
    </clipPath>
  </defs>
</svg>
