<svg viewBox="0 0 300 180" fill="currentColor" xmlns="http://www.w3.org/2000/svg">
  <rect width="300" height="180" rx="12" fill="#fff"/>
  <g clip-path="url(#clip0_5390_318)">
    <path d="M0 12C0 5.373 5.373 0 12 0h276c6.627 0 12 5.373 12 12v156c0 6.627-5.373 12-12 12H12c-6.627 0-12-5.373-12-12V12Z" fill="#FFA8CD"/>
    <path d="M245.313 107.527c-5.442 0-9.684-4.477-9.684-9.913s4.242-9.913 9.684-9.913c5.442 0 9.683 4.477 9.683 9.913s-4.241 9.913-9.683 9.913ZM242.592 118c4.641 0 10.563-1.759 13.845-8.634l.32.16c-1.44 3.757-1.44 5.996-1.44 6.555v.88H267V78.268h-11.683v.88c0 .559 0 2.797 1.44 6.555l-.32.16c-3.282-6.876-9.204-8.634-13.845-8.634-11.124 0-18.966 8.793-18.966 20.385 0 11.592 7.842 20.386 18.966 20.386Zm-39.293-40.771c-5.283 0-9.444 1.838-12.805 8.634l-.32-.16c1.44-3.758 1.44-5.996 1.44-6.556v-.88h-11.683v38.694h12.004V96.575c0-5.356 3.12-8.714 8.163-8.714 5.042 0 7.523 2.878 7.523 8.634v20.466h12.003V92.338c0-8.794-6.882-15.11-16.325-15.11Zm-40.734 8.634-.321-.16c1.441-3.758 1.441-5.996 1.441-6.556v-.88h-11.683v38.694h12.003l.081-18.627c0-5.436 2.88-8.714 7.602-8.714 1.281 0 2.321.16 3.521.48V78.268c-5.282-1.12-10.004.88-12.644 7.595Zm-38.174 21.664c-5.442 0-9.683-4.477-9.683-9.913s4.241-9.913 9.683-9.913 9.684 4.477 9.684 9.913-4.242 9.913-9.684 9.913ZM121.67 118c4.643 0 10.565-1.759 13.845-8.634l.32.16c-1.44 3.757-1.44 5.996-1.44 6.555v.88h11.685V78.268h-11.685v.88c0 .559 0 2.797 1.44 6.555l-.32.16c-3.28-6.876-9.202-8.634-13.845-8.634-11.124 0-18.966 8.793-18.966 20.385 0 11.592 7.842 20.386 18.966 20.386Zm-35.691-1.039h12.003V61H85.98v55.961ZM77.175 61H64.93c0 9.993-6.162 18.947-15.525 25.342l-3.68 2.558V61H33v55.961h12.724v-27.74l21.047 27.74h15.527L62.049 90.419C71.253 83.784 77.255 73.471 77.175 61Z"/>
  </g>
  <defs>
    <clipPath id="clip0_5390_318">
      <path fill="#fff" d="M0 0h300v180H0z"/>
    </clipPath>
  </defs>
</svg>
