<svg viewBox="0 0 40 40" fill="currentColor" xmlns="http://www.w3.org/2000/svg"><path fill-rule="evenodd" clip-rule="evenodd" d="M8.75 11.148a2.5 2.5 0 0 1 2.5-2.5h5.5a2.5 2.5 0 0 1 2.5 2.5v2.25h1.5v-2.25a2.5 2.5 0 0 1 2.5-2.5h5.5a2.5 2.5 0 0 1 2.5 2.5v2.25h2.25v17.25h-27v-17.25h2.25v-2.25Zm19.5 2.25v-1.75h-4.5v1.75h4.5Zm-12-1.75v1.75h-4.5v-1.75h4.5Zm-6.75 4.75v11.25h21v-11.25h-21Z"/><path d="M17.968 17.376c.118-.049.246-.073.47-.073l2.725.002h.025c.424.011.963.204 1.409.544.357.273.99 1.154.99 1.836v.001a2.565 2.565 0 0 1-.44 1.587c-.127.186-.256.33-.38.452a2.28 2.28 0 0 1-.432.328l-1.357.813a.987.987 0 0 1-.988.935.957.957 0 0 1-.959-.97v-.55a.95.95 0 0 1 .469-.837l1.887-1.076c.272-.226.24-.43.24-.569a.598.598 0 0 0-.6-.511h-2.479c-.137 0-.246.239-.246.239a.945.945 0 0 1-1.223.61 1.005 1.005 0 0 1-.62-1.26c.088-.261.223-.575.506-.867.27-.28.613-.474 1.003-.634Zm3.204 8.198a1.172 1.172 0 1 1-2.344 0 1.172 1.172 0 0 1 2.344 0Z"/></svg>